<?xml version="1.0" encoding="UTF-8" standalone="no"?>
<!DOCTYPE svg PUBLIC "-//W3C//DTD SVG 1.1//EN" "http://www.w3.org/Graphics/SVG/1.1/DTD/svg11.dtd">
<svg width="100%" height="100%" viewBox="0 0 1328 1158" version="1.1" xmlns="http://www.w3.org/2000/svg" xmlns:xlink="http://www.w3.org/1999/xlink" xml:space="preserve" xmlns:serif="http://www.serif.com/" style="fill-rule:evenodd;clip-rule:evenodd;stroke-linejoin:round;stroke-miterlimit:2;">
    <g transform="matrix(1,0,0,1,-136.635539,-261.071489)">
        <g id="Background" transform="matrix(1.299805,0,0,1.299805,135,260)">
            <path d="M292.796,73.227C292.177,72.59 274.02,43.46 273.992,43.376C273.226,41.068 272.448,41.641 271.415,39.552C265.572,27.731 247.44,4.105 249.458,1.465C249.731,1.108 249.851,1.149 377.5,1.149C427.346,1.149 428.338,0.748 429.557,3.47C430.765,6.165 431.255,5.796 432.582,8.45C435.622,14.534 436.353,13.927 436.59,14.454C442.612,27.896 468.839,70.188 470.005,73.619C470.076,73.829 514.679,151.211 515.22,151.759C517.238,153.801 517.107,156.56 517.722,157.322C519.58,159.624 518.86,160.03 520.713,162.329C525.477,168.238 524.306,168.83 524.713,169.331C528.633,174.152 527.338,174.949 531.17,179.764C531.845,180.612 539.676,194.652 540.006,195.629C541.21,199.19 542.947,198.104 544.018,201.613C544.834,204.287 545.413,203.901 546.562,206.468C549.297,212.578 553.148,216.61 559.933,230.286C561.656,233.759 562.801,233.002 564.012,236.614C565.466,240.952 567.087,241.413 568.582,244.45C575.159,257.811 576.019,257.289 576.588,258.447C582.243,269.959 583.112,269.452 583.567,270.466C588.336,281.097 589.551,280.438 589.811,281.412C591.164,286.498 592.733,285.645 595.585,291.449C598.367,297.113 598.694,296.824 601.573,302.455C602.418,304.108 606.819,311.035 607.01,311.624C607.757,313.927 608.615,313.325 609.572,315.462C612.662,322.365 613.31,321.873 613.573,322.462C616.864,329.85 629.776,350.912 630.01,351.624C630.748,353.871 631.549,353.342 632.595,355.442C636.414,363.11 636.779,362.914 637.011,363.62C637.754,365.88 638.614,365.324 639.575,367.462C642.187,373.275 642.817,372.82 645.583,378.449C649.838,387.111 652.113,389.474 652.592,390.445C656.213,397.774 672.99,426.141 673.237,426.636C674.004,428.171 688.606,453.919 688.86,454.148C690.649,455.756 689.806,456.192 690.94,458.271C691.842,459.926 693.449,459.885 693.841,461.411C695.666,468.521 702.682,475.343 704.03,480.623C704.504,482.479 705.415,481.875 706.241,483.636C709.367,490.311 709.809,490.02 710.007,490.623C710.762,492.916 711.601,492.327 712.566,494.466C715.15,500.198 715.76,499.774 718.577,505.454C726.137,520.698 730.624,521.523 725.211,527.234C724.361,528.131 697.407,573.019 697.234,573.363C695.525,576.762 694.415,577.329 694.374,577.401C690.417,584.3 690.226,584.072 689.99,584.712C689.346,586.46 688.915,586.094 687.945,587.76C682.997,596.253 683.724,596.581 683.19,597.241C675.236,607.06 676.437,607.872 675.676,608.657C673.608,610.792 673.709,612.569 673.18,613.234C672.347,614.282 667.898,619.875 664.253,627.391C662.216,631.589 661.434,631.013 661.282,631.381C658.842,637.301 657.474,637.792 655.354,642.385C654.074,645.156 652.878,641.452 652.285,640.68C650.322,638.126 650.66,637.983 648.724,635.363C646.027,631.714 647.47,630.834 646.155,629.917C643.051,627.754 644.777,626.574 642.287,623.669C639.226,620.098 623.16,590.657 621.785,589.237C619.322,586.693 620.472,586.081 619.302,584.658C615.389,579.898 616.704,579.076 612.827,574.236C610.691,571.569 611.596,571.157 609.729,568.38C606.213,563.152 606.281,563.179 603.613,557.412C602.544,555.102 601.478,555.911 600.425,553.539C597.599,547.176 595.731,548.157 593.967,541.377C593.574,539.864 591.076,537.995 590.428,536.537C587.78,530.577 587.156,530.922 586.988,530.384C585.701,526.262 580.953,521.324 579.992,518.376C579.26,516.132 578.386,516.689 577.427,514.538C574.154,507.203 544.158,458.109 543.988,457.379C543.45,455.073 542.476,455.723 541.402,453.559C538.047,446.802 537.691,447.127 537.428,446.537C534.764,440.572 534.164,440.915 533.989,440.379C533.253,438.131 532.454,438.673 531.404,436.558C527.598,428.886 527.163,429.101 526.992,428.378C526.439,426.041 525.394,426.674 524.432,424.535C521.372,417.73 520.701,418.122 520.438,417.533C519.885,416.289 519.531,415.494 512.068,402.722C496.218,375.597 495.542,376.027 494.43,373.536C492.285,368.731 484.675,357.078 484.433,356.535C481.694,350.404 480.99,350.895 480.758,350.37C479.42,347.334 478.816,345.095 476.918,347.828C475.361,350.071 433.029,392.341 429.182,396.182C426.499,398.861 395.94,429.376 395.559,429.582C394.91,429.934 392.059,431.479 397.267,438.643C403.881,447.741 405.777,454.087 407.699,456.34C409.332,458.254 408.848,458.473 410.271,460.619C413.294,465.176 413.387,465.023 413.592,465.444C416.526,471.481 419.58,475.327 420.009,476.625C420.774,478.938 421.562,478.357 422.593,480.443C427.377,490.116 428.184,489.604 428.595,490.442C432.969,499.348 433.77,498.798 434.021,499.612C435.66,504.945 437.321,504.893 438.582,507.451C442.461,515.319 443.266,514.763 443.598,515.441C443.912,516.081 447.112,522.596 447.7,523.35C450.685,527.169 449.862,528.427 451.85,530.134C454.175,532.13 460.5,545.965 461.851,547.135C463.782,548.805 467.328,556.716 467.838,557.15C470.304,559.247 469.487,560.185 471.266,562.643C475.712,568.786 474.922,569.152 475.379,569.61C476.46,570.693 481.108,579.649 481.7,580.341C483.384,582.309 482.869,582.54 484.271,584.62C491.863,595.885 490.949,596.432 491.713,597.329C493.663,599.616 492.859,600.063 494.712,602.334C498.148,606.548 497.406,606.976 497.701,607.338C501.157,611.572 500.404,611.981 500.699,612.342C503.008,615.168 502.92,615.181 504.278,618.62C504.759,619.837 506.417,619.875 506.823,621.412C508.112,626.293 511.991,630.245 512.587,631.447C514.419,635.142 517.246,638.736 518.583,641.449C519.201,642.703 522.578,649.555 527.273,656.62C531.764,663.381 531.303,663.691 531.843,664.143C534.619,666.468 533.48,667.823 534.708,669.332C538.202,673.623 537.109,674.211 540.261,678.646C545.319,685.764 544.842,686.077 545.381,686.609C548.432,689.618 549.146,694.5 550.699,696.34C554.806,701.208 555.24,703.578 557.276,706.616C560.378,711.244 587.757,758.192 588.701,759.345C591.691,762.995 585.78,766.976 583.595,773.541C582.882,775.684 580.541,777.783 580.272,778.383C577.68,784.161 577.277,783.863 574.606,789.555C570.922,797.406 564.148,807.299 563.888,808.57C563.089,812.477 562.001,811.884 560.235,815.361C559.623,816.568 553.546,828.538 552.175,830.239C549.273,833.839 543.308,847.018 542.681,847.662C538.625,851.824 539.676,855.876 534.702,861.661C531.888,864.933 522.55,883.595 521.575,885.545C518.966,890.757 516.772,893.807 514.422,888.54C510.925,880.703 510.218,881.084 509.988,880.377C509.243,878.076 508.382,878.678 507.425,876.539C500.682,861.467 498.765,862.575 497.408,859.547C494.872,853.889 494.646,854.027 494.437,853.532C493.1,850.372 492.592,850.772 491.069,847.713C488.095,841.737 487.667,842.066 487.414,841.552C485.003,836.663 484.626,836.96 484.435,836.533C481.136,829.152 477.638,824.997 475.419,820.549C471.519,812.731 470.739,813.234 470.406,812.557C461.879,795.229 460.478,795.988 459.982,794.387C459.194,791.843 425.176,733.878 425.149,733.855C424.489,733.281 422.13,727.712 421.145,726.853C419.745,725.631 416.673,718.438 415.62,717.391C412.428,714.221 413.896,712.631 411.621,710.391C411.29,710.065 409.983,708.778 408.408,705.555C404.644,697.852 404.222,698.084 403.989,697.377C403.254,695.146 402.463,695.684 401.403,693.559C398.044,686.825 397.693,687.126 397.429,686.537C391.898,674.179 378.078,654.294 376.747,650.394C376.565,649.863 359.023,619.476 358.788,619.233C356.417,616.774 357.209,615.817 356.303,614.652C353.534,611.09 354.019,609.747 352.286,607.671C347.824,602.327 344.848,594.261 342.737,591.356C340.443,588.2 340.763,588.135 339.071,584.731C338.865,584.316 336.985,580.532 336.284,579.665C334.421,577.36 335.108,576.991 333.3,574.653C327.874,567.639 316.112,544.708 315.148,543.855C313.143,542.08 314.675,541.19 313.157,539.854C312.634,539.393 311.167,538.102 308.42,532.548C304.942,525.514 304.222,526.008 303.981,525.377C302.42,521.284 302.21,521.484 300.069,517.738C292.474,504.451 291.999,504.746 291.406,503.557C285.763,492.233 271.822,469.353 271.419,468.549C268.389,462.511 267.656,463.068 267.42,462.541C264.426,455.856 264.207,455.971 263.995,455.371C262.723,451.764 258.54,448.693 256.745,443.395C255.573,439.936 254.167,440.244 253.409,438.547C250.841,432.79 250.321,433.11 250.183,432.585C249.276,429.129 248.1,429.711 246.992,426.374C246.245,424.125 245.452,424.668 244.404,422.558C239.366,412.418 211.523,366.757 209.992,362.373C209.204,360.116 208.452,360.664 207.413,358.553C204.441,352.515 203.635,353.079 203.4,352.552C199.072,342.824 198.319,343.235 197.986,342.375C196.562,338.707 196.309,338.917 194.098,335.739C193.713,335.185 190.872,331.1 189.988,328.377C189.27,326.166 160.485,277.805 159.992,276.377C159.247,274.219 152.942,265.19 141.079,243.711C136.523,235.461 136.798,235.308 136.284,234.67C131.244,228.412 132.113,227.877 131.618,227.394C129.35,225.18 128.368,219.97 125.791,217.234C122.426,213.662 123.895,211.974 121.656,210.285C119.184,208.421 119.141,204.782 116.737,201.356C110.564,192.556 106.725,183.069 105.319,181.664C103.503,179.848 104.167,179.494 102.727,177.38C99.248,172.273 99.633,172.075 99.306,171.654C96.238,167.699 96.231,164.618 94.148,162.854C93.232,162.078 89.314,153.718 89.28,153.676C85.037,148.42 85.672,148.101 85.295,147.664C80.718,142.348 81.182,138.592 79.173,136.845C75.894,133.996 77.771,132.584 75.286,129.671C73.156,127.174 17.133,29.766 16.995,29.374C16.208,27.128 15.453,27.647 14.416,25.551C10.935,18.52 10.214,19.011 9.974,18.381C6.628,9.594 0.075,3.295 1.444,1.454C2.308,0.292 139.501,1.081 151.506,1.15C157.639,1.185 156.692,6.279 157.847,7.083C159.726,8.39 159.524,8.51 160.25,10.608C161.107,13.084 162.27,12.365 162.812,14.412C164.165,19.517 165.703,18.656 168.58,24.451C172.898,33.15 175.921,36.071 178.581,41.451C180.401,45.131 180.775,44.817 182.581,48.451C184.953,53.222 189.682,59.162 190.016,60.619C190.492,62.691 209.645,93.593 209.824,94.425C210.353,96.887 211.103,96.445 212.233,98.645C215.306,104.63 215.99,104.12 216.25,104.635C221.979,115.962 222.676,115.567 223.009,116.616C224.079,119.987 225.082,119.347 226.594,122.443C229.718,128.841 232.569,132.289 233.007,133.623C233.768,135.937 234.556,135.359 235.59,137.446C238.892,144.115 239.296,143.88 239.56,144.469C242.232,150.437 242.829,150.088 243.007,150.623C243.771,152.931 244.552,152.358 245.587,154.447C248.913,161.159 249.301,160.869 249.587,161.447C249.903,162.085 253.167,168.68 253.701,169.338C258.286,174.997 256.964,175.796 261.267,181.645C265.005,186.726 264.71,186.839 267.39,192.588C267.921,193.726 269.149,192.816 270.019,195.612C271.063,198.967 272.065,198.328 273.612,201.432C283.74,221.741 286.367,221.619 287.023,224.617C287.536,226.967 288.614,226.279 289.588,228.455C292.666,235.325 293.317,234.87 293.579,235.459C297.184,243.562 306.824,257.93 308.579,261.453C312.474,269.274 313.266,268.772 313.574,269.462C316.902,276.914 336.315,307.503 337.01,309.624C339.198,316.298 343.659,313.786 344.067,313.175C347.552,307.954 352.22,307.338 354.127,305.165C356.911,301.991 357.142,302.4 363.645,297.733C369.585,293.47 369.726,293.692 370.075,293.167C373.549,287.944 375.48,289.87 382.773,282.788C386.634,279.038 389.007,278.414 390.332,277.302C398.263,270.648 398.266,270.78 406.646,264.732C411.773,261.031 408.603,259.955 407.766,258.355C407.169,257.214 402.709,248.685 399.306,244.662C397.649,242.703 398.123,242.493 396.725,240.382C387.094,225.832 387.56,225.638 386.727,224.38C381.857,217.031 381.745,217.233 381.409,216.555C376.289,206.227 366.517,192.759 365.419,190.55C361.3,182.257 360.123,183.02 358.411,179.554C354.102,170.837 346.06,159.857 345.418,158.55C341.107,149.766 338.489,148.028 337.435,145.534C336.45,143.201 335.915,143.584 334.763,141.357C331.123,134.317 330.21,135.015 329.97,134.382C328.985,131.79 328.573,132.085 327.435,129.533C327.128,128.844 325.432,125.044 322.734,121.355C317.8,114.607 318.625,114.16 313.732,107.358C308.914,100.661 309.748,100.209 309.297,99.66C302.483,91.343 303.87,90.449 303.168,89.845C299.828,86.975 301.372,85.904 298.79,83.231C296.509,80.87 294.149,74.903 292.796,73.227Z" style="fill:white;fill-opacity:0.99;"/>
            <path d="M771.815,167.328C772.029,163.852 785.947,157.187 787.394,154.424C788.039,153.193 788.71,154.033 794.646,149.731C800.689,145.352 800.837,145.701 801.327,145.287C803.075,143.807 803.083,143.89 822.644,129.731C863.369,100.251 874.404,93.084 875.768,91.785C876.958,90.654 884.773,86.777 879.472,86.771C864.197,86.755 692.945,86.574 688.533,86.9C687.452,86.98 685.76,89.207 688.262,92.642C691.253,96.747 690.16,98.435 691.717,100.332C693.64,102.673 693.11,102.878 694.271,105.616C694.507,106.172 696.503,110.884 697.7,112.349C700.875,116.237 699.009,117.132 700.706,119.346C704.343,124.092 707.127,132.742 707.948,134.276C710.837,139.667 710.458,139.81 710.846,140.163C712.595,141.758 714.509,147.624 715.265,148.64C717.147,151.17 720.134,159.619 720.703,160.349C723.779,164.299 723.688,167.058 724.703,168.35C727.32,171.682 726.225,172.207 727.929,175.284C730.924,180.693 730.378,180.92 730.713,181.335C734.68,186.259 733,187.171 734.702,189.35C737.599,193.06 736.207,193.789 738.26,196.644C740.36,199.565 739.394,200.042 741.259,202.645C743.322,205.525 744.306,209.805 744.719,210.337C747.5,213.92 746.295,214.555 747.699,216.35C750.272,219.641 749.067,220.267 750.701,222.351C753.243,225.591 760.446,243.842 761.712,245.335C765.849,250.213 766.364,255.66 767.697,257.351C771.599,262.297 770.367,264.666 771.719,266.331C772.466,267.251 772.78,267.637 778.578,279.454C783.161,288.793 783.367,288.593 783.606,289.456C785.127,294.961 788.425,300.144 788.578,300.455C797.513,318.537 796.668,318.942 797.729,320.334C800.651,324.17 806.919,338.681 807.245,339.611C808.3,342.621 810.496,345.266 810.573,345.463C812.878,351.344 813.725,350.883 813.841,351.414C814.577,354.783 814.738,354.639 816.238,357.633C816.691,358.537 819.679,364.505 815.165,370.233C812.949,373.044 815.176,374.132 812.686,376.666C810.284,379.111 811.86,379.939 809.915,382.739C805.017,389.792 804.857,395.091 803.178,397.245C800.044,401.267 801.854,402.138 800.192,404.255C796.622,408.801 795.268,415.136 789.94,425.699C786.06,433.392 786.632,433.654 786.177,434.246C782.986,438.402 781.576,443.56 781.339,444.43C779.387,451.573 777.479,440.984 776.154,439.852C773.487,437.573 774.411,436.181 772.623,434.388C770.022,431.781 771.405,430.108 768.619,427.391C768.286,427.067 766.995,425.808 765.41,422.555C762.984,417.577 762.844,417.726 757.079,407.724C731.28,362.973 730.397,363.574 728.415,359.552C725.157,352.939 705.525,320.815 704.415,318.551C701.443,312.486 700.628,313.08 700.414,312.544C696.206,302.01 689.29,295.012 687.413,289.539C686.577,287.099 685.909,287.597 684.759,285.359C680.412,276.896 679.735,277.303 679.432,276.536C677.872,272.597 677.268,272.945 677.185,272.591C676.616,270.153 675.911,270.573 674.763,268.356C672.352,263.7 671.359,264.37 669.435,259.535C667.87,255.601 667.274,255.945 667.19,255.592C666.602,253.12 665.889,253.553 664.761,251.359C661.671,245.347 660.998,245.887 660.739,245.371C660.126,244.156 654.176,232.345 652.736,230.356C648.656,224.725 636.607,202.338 633.733,198.358C628.492,191.102 629.725,190.377 629.144,189.868C627.597,188.514 615.758,167.374 615.152,166.85C613.366,165.309 614.875,164.383 613.147,162.866C609.572,159.728 607.15,151.593 605.15,149.854C603.183,148.144 604.294,147.48 602.736,145.355C595.629,135.666 594.922,130.731 592.302,127.66C590.658,125.735 591.158,125.5 589.727,123.381C586.559,118.689 582.806,111.45 582.738,111.355C575.541,101.326 576.939,100.563 576.144,99.863C573.808,97.807 574.409,96.687 572.739,94.355C567.999,87.734 568.673,87.316 568.143,86.853C566.306,85.249 567.839,84.369 566.144,82.867C563.574,80.59 564.335,79.099 562.626,77.386C558.942,73.695 554.173,61.942 552.625,60.386C550.234,57.981 551.379,57.293 549.294,54.658C546.738,51.428 543.742,44.259 541.785,42.236C539.603,39.98 540.509,39.119 539.3,37.656C536.687,34.493 537.846,33.825 535.29,30.664C534.856,30.127 531.027,25.392 530.43,23.536C529.073,19.326 527.583,18.922 525.423,14.547C519.861,3.28 517.581,3.666 518.812,1.75C519.585,0.548 714.75,1.381 1020.517,1.124C1022.669,1.122 1023.335,1.456 1022.638,3.551C1022.448,4.122 1021.291,7.599 1019.173,10.237C1017.018,12.919 1018.297,13.609 1016.181,16.234C1010.577,23.186 1011.847,26.413 1008.673,29.654C1006.48,31.893 1007.073,33.061 1006.174,34.241C1004.093,36.973 1005.276,37.571 1003.184,40.248C1000.548,43.621 998.294,48.015 997.93,48.725C993.177,57.991 993.407,57.995 992.896,58.731C988.599,64.909 989.256,65.203 988.885,65.731C985.563,70.454 986.481,70.847 986.177,71.231C982.241,76.2 983.526,76.823 983.188,77.241C979.514,81.782 974.392,92.478 965.925,107.708C965.542,108.397 961.458,115.742 961.271,116.385C959.813,121.375 958.698,120.763 956.566,125.534C954.44,130.29 953.204,129.557 951.271,134.382C947.759,143.148 942.415,149.993 941.258,153.396C939.932,157.293 939.016,156.742 937.247,160.388C934.884,165.261 934.407,164.939 934.278,165.386C932.396,171.902 931.137,171.153 930.993,171.704C929.57,177.157 922.847,185.652 921.26,190.397C919.958,194.291 918.584,193.546 917.25,197.392C915.434,202.627 914.405,201.938 914.277,202.385C912.426,208.843 911.137,208.148 910.993,208.698C909.888,212.918 908.434,212.153 907.006,216.383C905.881,219.718 904.979,219.115 904.381,220.407C901.427,226.795 901.515,226.821 901.241,227.367C899.093,231.653 898.021,231.033 896.81,235.584C896.332,237.381 895.234,236.681 894.247,239.389C893.427,241.636 869.079,286.23 868.673,286.65C866.667,288.726 866.66,291.645 866.184,292.236C865.6,292.962 862.226,297.155 860.849,302.589C860.374,304.463 858.968,303.679 853.239,315.366C849.595,322.799 847.52,312.572 846.73,311.381C841.941,304.168 841.03,299.592 840.285,298.667C837.449,295.142 838.289,294.722 836.068,290.715C829.495,278.86 830.029,278.577 829.289,277.662C826.652,274.401 823.541,266.024 822.788,265.235C820.388,262.721 822.131,261.754 819.79,259.237C816.73,255.948 817.429,255.591 815.42,251.548C810.492,241.628 810.881,241.425 810.278,240.675C804.308,233.262 805.676,229.094 803.145,226.862C799.784,223.899 801.906,222.509 798.786,219.238C797.564,217.956 793.791,208.308 793.279,207.67C790.971,204.799 791.877,204.322 789.741,201.354C786.627,197.029 788.382,196.124 786.268,193.681C783.063,189.979 773.282,168.998 771.815,167.328Z" style="fill:white;fill-opacity:0.99;"/>
        </g>
    </g>
</svg>
